<?xml version="1.0" encoding="UTF-8" standalone="no"?>
<!DOCTYPE svg PUBLIC "-//W3C//DTD SVG 1.1//EN" "http://www.w3.org/Graphics/SVG/1.1/DTD/svg11.dtd">
<svg width="100%" height="100%" viewBox="0 0 548 102" version="1.1" xmlns="http://www.w3.org/2000/svg" xmlns:xlink="http://www.w3.org/1999/xlink" xml:space="preserve" xmlns:serif="http://www.serif.com/" style="fill-rule:evenodd;clip-rule:evenodd;stroke-linejoin:round;stroke-miterlimit:2;">
    <g transform="matrix(1,0,0,1,-9768.427037,-1884.424669)">
        <g transform="matrix(0.33216,0,0,0.33216,7981.069994,1561.320195)">
            <g transform="matrix(0.762783,0,0,0.76284,3035.662537,648.454258)">
                <g transform="matrix(1,0,0,1,1024.726619,2.811523)">
                    <path d="M2210,480L2370,720L2290,720L2210,560L2130,720L2050,720L2210,480Z" style="fill:white;"/>
                </g>
                <g transform="matrix(3.855422,0,0,0.584534,-5291.538441,318.565313)">
                    <rect x="2170" y="760" width="83" height="77" style="fill:white;"/>
                </g>
            </g>
            <g transform="matrix(2.753098,0,0,2.753304,-4369.130498,-5226.621471)">
                <g transform="matrix(0.238612,0,0,0.238612,3055.268343,2130.777909)">
                    <path d="M2546.874,943.203L2555.737,943.203L2593.61,836.354L2604.569,836.354L2642.441,943.203L2651.305,943.203L2651.305,948.844L2616.495,948.844L2616.495,943.203L2631.805,943.203L2620.846,911.777L2573.948,911.777L2562.99,943.203L2578.3,943.203L2578.3,948.844L2546.874,948.844L2546.874,943.203ZM2575.721,905.975L2618.912,905.975L2597.8,844.896L2596.994,844.896L2575.721,905.975Z" style="fill:white;"/>
                    <path d="M2663.07,943.203L2675.802,943.203L2675.802,841.995L2663.07,841.995L2663.07,836.354L2708.195,836.354C2723.559,836.354 2735.565,841.028 2744.214,850.375C2752.863,859.722 2757.187,873.797 2757.187,892.599C2757.187,911.401 2752.863,925.476 2744.214,934.823C2735.565,944.17 2723.559,948.844 2708.195,948.844L2663.07,948.844L2663.07,943.203ZM2685.632,942.881L2707.389,942.881C2713.728,942.881 2719.315,941.86 2724.15,939.819C2728.984,937.778 2733.04,934.903 2736.317,931.197C2739.594,927.49 2742.065,923.031 2743.731,917.821C2745.396,912.61 2746.229,906.835 2746.229,900.496L2746.229,884.702C2746.229,878.363 2745.396,872.588 2743.731,867.377C2742.065,862.167 2739.594,857.708 2736.317,854.001C2733.04,850.294 2728.984,847.42 2724.15,845.379C2719.315,843.338 2713.728,842.317 2707.389,842.317L2685.632,842.317L2685.632,942.881Z" style="fill:white;"/>
                    <path d="M2775.076,841.995L2766.212,841.995L2766.212,836.354L2800.701,836.354L2800.701,841.995L2785.39,841.995L2803.763,896.306L2817.461,938.852L2818.106,938.852L2831.966,896.144L2849.854,841.995L2834.544,841.995L2834.544,836.354L2865.809,836.354L2865.809,841.995L2856.946,841.995L2821.007,948.844L2811.015,948.844L2775.076,841.995Z" style="fill:white;"/>
                    <path d="M2923.827,944.493C2929.736,944.493 2935.028,943.445 2939.701,941.35C2944.375,939.255 2948.323,936.273 2951.546,932.406C2954.77,928.538 2957.214,923.837 2958.879,918.304C2960.545,912.771 2961.377,906.512 2961.377,899.529L2961.377,885.669C2961.377,878.793 2960.545,872.561 2958.879,866.975C2957.214,861.388 2954.77,856.66 2951.546,852.792C2948.323,848.925 2944.375,845.943 2939.701,843.848C2935.028,841.753 2929.736,840.705 2923.827,840.705C2917.81,840.705 2912.492,841.753 2907.872,843.848C2903.252,845.943 2899.331,848.925 2896.107,852.792C2892.884,856.66 2890.44,861.388 2888.775,866.975C2887.109,872.561 2886.277,878.793 2886.277,885.669L2886.277,899.529C2886.277,906.512 2887.109,912.771 2888.775,918.304C2890.44,923.837 2892.884,928.538 2896.107,932.406C2899.331,936.273 2903.252,939.255 2907.872,941.35C2912.492,943.445 2917.81,944.493 2923.827,944.493ZM2923.827,950.778C2916.414,950.778 2909.699,949.488 2903.682,946.91C2897.665,944.331 2892.562,940.571 2888.372,935.629C2884.182,930.686 2880.958,924.589 2878.702,917.337C2876.446,910.085 2875.318,901.839 2875.318,892.599C2875.318,883.359 2876.446,875.113 2878.702,867.861C2880.958,860.609 2884.182,854.511 2888.372,849.569C2892.562,844.627 2897.665,840.867 2903.682,838.288C2909.699,835.709 2916.414,834.42 2923.827,834.42C2931.24,834.42 2937.955,835.709 2943.972,838.288C2949.989,840.867 2955.092,844.627 2959.282,849.569C2963.472,854.511 2966.696,860.609 2968.952,867.861C2971.208,875.113 2972.336,883.359 2972.336,892.599C2972.336,901.839 2971.208,910.085 2968.952,917.337C2966.696,924.589 2963.472,930.686 2959.282,935.629C2955.092,940.571 2949.989,944.331 2943.972,946.91C2937.955,949.488 2931.24,950.778 2923.827,950.778Z" style="fill:white;"/>
                    <path d="M3039.379,950.778C3032.073,950.778 3025.546,949.488 3019.798,946.91C3014.05,944.331 3009.134,940.571 3005.052,935.629C3000.969,930.686 2997.853,924.616 2995.704,917.418C2993.556,910.219 2992.481,901.946 2992.481,892.599C2992.481,882.929 2993.609,874.468 2995.865,867.216C2998.122,859.964 3001.345,853.921 3005.535,849.086C3009.725,844.251 3014.802,840.598 3020.765,838.127C3026.728,835.656 3033.416,834.42 3040.829,834.42C3050.176,834.42 3057.402,835.817 3062.505,838.61C3067.609,841.404 3070.805,844.52 3072.094,847.958L3072.9,847.958L3072.9,836.354L3081.28,836.354L3081.28,869.231L3072.9,869.231L3072.9,860.206C3072.9,857.197 3072.121,854.485 3070.563,852.067C3069.005,849.65 3066.857,847.582 3064.117,845.863C3061.377,844.144 3058.127,842.854 3054.367,841.995C3050.606,841.135 3046.47,840.705 3041.957,840.705C3029.172,840.705 3019.556,844.573 3013.11,852.309C3006.663,860.045 3003.44,870.896 3003.44,884.863L3003.44,900.012C3003.44,906.888 3004.3,913.039 3006.019,918.465C3007.738,923.891 3010.209,928.484 3013.432,932.244C3016.655,936.005 3020.523,938.879 3025.035,940.866C3029.548,942.854 3034.651,943.848 3040.346,943.848C3044.858,943.848 3049.075,943.257 3052.997,942.075C3056.918,940.893 3060.33,939.147 3063.23,936.837C3066.131,934.527 3068.441,931.68 3070.16,928.296C3071.879,924.912 3072.739,920.963 3072.739,916.451L3072.739,901.302L3050.982,901.302L3050.982,895.661L3094.173,895.661L3094.173,901.302L3082.57,901.302L3082.57,948.844L3078.218,948.844L3073.222,931.761L3072.578,931.761C3071.503,934.339 3070.026,936.784 3068.146,939.094C3066.266,941.404 3063.956,943.418 3061.216,945.137C3058.476,946.856 3055.307,948.226 3051.707,949.247C3048.108,950.267 3043.999,950.778 3039.379,950.778Z" style="fill:white;"/>
                    <path d="M3102.553,943.203L3111.417,943.203L3149.29,836.354L3160.249,836.354L3198.121,943.203L3206.985,943.203L3206.985,948.844L3172.175,948.844L3172.175,943.203L3187.485,943.203L3176.526,911.777L3129.628,911.777L3118.669,943.203L3133.98,943.203L3133.98,948.844L3102.553,948.844L3102.553,943.203ZM3131.401,905.975L3174.592,905.975L3153.48,844.896L3152.674,844.896L3131.401,905.975Z" style="fill:white;"/>
                    <path d="M3218.75,943.203L3231.482,943.203L3231.482,841.995L3218.75,841.995L3218.75,836.354L3263.875,836.354C3279.239,836.354 3291.245,841.028 3299.894,850.375C3308.543,859.722 3312.867,873.797 3312.867,892.599C3312.867,911.401 3308.543,925.476 3299.894,934.823C3291.245,944.17 3279.239,948.844 3263.875,948.844L3218.75,948.844L3218.75,943.203ZM3241.312,942.881L3263.069,942.881C3269.408,942.881 3274.995,941.86 3279.83,939.819C3284.664,937.778 3288.72,934.903 3291.997,931.197C3295.274,927.49 3297.745,923.031 3299.411,917.821C3301.076,912.61 3301.908,906.835 3301.908,900.496L3301.908,884.702C3301.908,878.363 3301.076,872.588 3299.411,867.377C3297.745,862.167 3295.274,857.708 3291.997,854.001C3288.72,850.294 3284.664,847.42 3279.83,845.379C3274.995,843.338 3269.408,842.317 3263.069,842.317L3241.312,842.317L3241.312,942.881Z" style="fill:white;"/>
                    <path d="M3380.877,944.493C3386.786,944.493 3392.078,943.445 3396.751,941.35C3401.425,939.255 3405.373,936.273 3408.596,932.406C3411.82,928.538 3414.264,923.837 3415.929,918.304C3417.595,912.771 3418.427,906.512 3418.427,899.529L3418.427,885.669C3418.427,878.793 3417.595,872.561 3415.929,866.975C3414.264,861.388 3411.82,856.66 3408.596,852.792C3405.373,848.925 3401.425,845.943 3396.751,843.848C3392.078,841.753 3386.786,840.705 3380.877,840.705C3374.86,840.705 3369.542,841.753 3364.922,843.848C3360.302,845.943 3356.381,848.925 3353.157,852.792C3349.934,856.66 3347.49,861.388 3345.825,866.975C3344.159,872.561 3343.327,878.793 3343.327,885.669L3343.327,899.529C3343.327,906.512 3344.159,912.771 3345.825,918.304C3347.49,923.837 3349.934,928.538 3353.157,932.406C3356.381,936.273 3360.302,939.255 3364.922,941.35C3369.542,943.445 3374.86,944.493 3380.877,944.493ZM3380.877,950.778C3373.464,950.778 3366.749,949.488 3360.732,946.91C3354.715,944.331 3349.612,940.571 3345.422,935.629C3341.232,930.686 3338.008,924.589 3335.752,917.337C3333.496,910.085 3332.368,901.839 3332.368,892.599C3332.368,883.359 3333.496,875.113 3335.752,867.861C3338.008,860.609 3341.232,854.511 3345.422,849.569C3349.612,844.627 3354.715,840.867 3360.732,838.288C3366.749,835.709 3373.464,834.42 3380.877,834.42C3388.29,834.42 3395.005,835.709 3401.022,838.288C3407.039,840.867 3412.142,844.627 3416.332,849.569C3420.522,854.511 3423.746,860.609 3426.002,867.861C3428.258,875.113 3429.386,883.359 3429.386,892.599C3429.386,901.839 3428.258,910.085 3426.002,917.337C3423.746,924.589 3420.522,930.686 3416.332,935.629C3412.142,940.571 3407.039,944.331 3401.022,946.91C3395.005,949.488 3388.29,950.778 3380.877,950.778Z" style="fill:white;"/>
                    <path d="M3485.631,950.778C3477.68,950.778 3471.583,949.542 3467.339,947.071C3463.095,944.6 3460.06,941.592 3458.234,938.046L3457.589,938.046L3457.589,948.844L3449.209,948.844L3449.209,915.161L3457.589,915.161L3457.589,923.703C3457.589,926.604 3458.046,929.343 3458.959,931.922C3459.872,934.501 3461.376,936.703 3463.471,938.53C3465.567,940.356 3468.279,941.807 3471.61,942.881C3474.941,943.955 3479.077,944.493 3484.019,944.493C3494.119,944.493 3501.478,942.371 3506.098,938.127C3510.718,933.883 3513.028,928.054 3513.028,920.641C3513.028,917.203 3512.491,914.221 3511.417,911.696C3510.342,909.172 3508.838,906.996 3506.904,905.169C3504.97,903.343 3502.633,901.812 3499.894,900.576C3497.154,899.341 3494.119,898.293 3490.788,897.434L3481.118,894.855C3470.589,892.062 3462.881,888.167 3457.992,883.171C3453.103,878.175 3450.659,871.648 3450.659,863.59C3450.659,858.97 3451.492,854.861 3453.157,851.261C3454.823,847.662 3457.186,844.6 3460.248,842.075C3463.31,839.55 3466.99,837.643 3471.288,836.354C3475.585,835.065 3480.366,834.42 3485.631,834.42C3492.937,834.42 3498.658,835.602 3502.795,837.966C3506.931,840.329 3509.805,843.069 3511.417,846.185L3512.222,846.185L3512.222,836.354L3520.603,836.354L3520.603,868.425L3512.222,868.425L3512.222,859.561C3512.222,853.867 3510.074,849.301 3505.776,845.863C3501.478,842.424 3494.763,840.705 3485.631,840.705C3477.251,840.705 3470.858,842.586 3466.453,846.346C3462.048,850.106 3459.845,855.317 3459.845,861.979C3459.845,868.64 3461.94,873.663 3466.131,877.047C3470.321,880.431 3475.961,883.091 3483.052,885.024L3492.4,887.442C3502.821,890.235 3510.396,894.157 3515.123,899.207C3519.851,904.256 3522.214,910.649 3522.214,918.385C3522.214,923.112 3521.435,927.463 3519.877,931.439C3518.32,935.414 3516.01,938.825 3512.948,941.672C3509.886,944.519 3506.071,946.749 3501.505,948.36C3496.939,949.972 3491.648,950.778 3485.631,950.778Z" style="fill:white;"/>
                </g>
                <g transform="matrix(0.276331,0,0,0.276331,2959.365778,2045.610034)">
                    <path d="M2655.922,948.844L2688.954,948.844L2634.643,803.337L2601.002,803.337L2546.285,948.844L2577.291,948.844L2588.437,917.635L2644.978,917.635L2655.922,948.844ZM2617.012,836.978L2636.467,893.114L2597.151,893.114L2617.012,836.978Z" style="fill:white;"/>
                    <path d="M2726.04,948.844L2726.04,897.369L2745.293,897.369L2778.123,948.844L2814.803,948.844L2777.312,892.708C2797.983,885.818 2810.142,870.213 2810.142,850.556C2810.142,820.36 2788.864,803.337 2752.183,803.337L2695.237,803.337L2695.237,948.844L2726.04,948.844ZM2726.04,828.872L2750.764,828.872C2769.409,828.872 2779.339,836.167 2779.339,850.556C2779.339,864.742 2769.409,872.037 2750.764,872.037L2726.04,872.037L2726.04,828.872Z" style="fill:white;"/>
                    <path d="M2918.968,948.844L2952.001,948.844L2897.69,803.337L2864.049,803.337L2809.332,948.844L2840.338,948.844L2851.484,917.635L2908.025,917.635L2918.968,948.844ZM2880.059,836.978L2899.514,893.114L2860.198,893.114L2880.059,836.978Z" style="fill:white;"/>
                    <path d="M3052.316,948.844L3052.316,921.08L2989.087,921.08L2989.087,803.337L2958.284,803.337L2958.284,948.844L3052.316,948.844Z" style="fill:white;"/>
                    <path d="M3113.72,948.844C3158.913,948.844 3187.892,917.635 3187.892,875.28C3187.892,832.925 3159.926,803.337 3113.72,803.337L3062.043,803.337L3062.043,948.844L3113.72,948.844ZM3092.847,829.885L3112.099,829.885C3141.079,829.885 3156.278,846.3 3156.278,875.28C3156.278,905.476 3141.079,922.296 3112.099,922.296L3092.847,922.296L3092.847,829.885Z" style="fill:white;"/>
                    <rect x="3198.025" y="803.337" width="30.804" height="145.507" style="fill:white;"/>
                    <path d="M3322.629,877.914C3314.487,869.048 3310.868,864.163 3310.868,857.468C3310.868,850.049 3316.115,844.802 3323.172,844.802C3330.591,844.802 3335.838,849.325 3336.743,857.83L3360.084,857.83C3359.904,837.926 3345.247,824.717 3323.172,824.717C3301.278,824.717 3284.993,838.469 3284.993,857.287C3284.993,864.706 3287.165,871.22 3291.688,877.552C3277.937,885.333 3269.613,896.913 3269.613,910.665C3269.613,934.911 3286.984,950.472 3314.125,950.472C3326.067,950.472 3337.105,945.949 3346.876,937.444L3357.551,948.844L3388.492,948.844L3361.351,919.531C3366.779,909.398 3370.398,896.913 3370.579,886.057L3347.599,886.057C3347.419,891.847 3346.876,897.637 3345.79,902.884L3322.629,877.914ZM3293.679,909.217C3293.679,901.799 3297.84,895.828 3304.535,892.39L3334.029,923.693C3328.962,927.855 3322.629,930.026 3315.935,930.026C3301.278,930.026 3293.679,920.798 3293.679,909.217Z" style="fill:white;"/>
                    <path d="M3490.609,948.844L3516.346,948.844L3554.851,851.367L3554.851,948.844L3582.817,948.844L3582.817,803.337L3545.934,803.337L3503.579,911.15L3461.427,803.337L3424.543,803.337L3424.543,948.844L3452.51,948.844L3452.51,852.177L3490.609,948.844Z" style="fill:white;"/>
                    <path d="M3706.843,778.613C3706.843,768.683 3699.547,761.995 3689.82,761.995C3679.687,761.995 3672.391,768.683 3672.391,778.613C3672.391,788.138 3679.687,795.028 3689.82,795.028C3699.547,795.028 3706.843,788.138 3706.843,778.613ZM3662.056,778.613C3662.056,768.683 3654.963,761.995 3644.627,761.995C3634.697,761.995 3627.402,768.683 3627.402,778.613C3627.402,788.138 3634.697,795.028 3644.627,795.028C3654.963,795.028 3662.056,788.138 3662.056,778.613ZM3667.122,951.884C3709.275,951.884 3741.902,919.459 3741.902,875.888C3741.902,832.317 3709.275,800.297 3667.122,800.297C3625.172,800.297 3592.748,832.317 3592.748,875.888C3592.748,919.459 3625.172,951.884 3667.122,951.884ZM3667.122,924.323C3640.574,924.323 3624.362,902.638 3624.362,875.888C3624.362,849.137 3640.574,827.858 3667.122,827.858C3693.873,827.858 3710.085,849.137 3710.085,875.888C3710.085,902.638 3693.873,924.323 3667.122,924.323Z" style="fill:white;"/>
                    <path d="M3845.864,948.844L3845.864,921.08L3782.636,921.08L3782.636,803.337L3751.832,803.337L3751.832,948.844L3845.864,948.844Z" style="fill:white;"/>
                    <path d="M3949.624,948.844L3949.624,921.08L3886.395,921.08L3886.395,803.337L3855.592,803.337L3855.592,948.844L3949.624,948.844Z" style="fill:white;"/>
                    <path d="M4057.234,922.093L3990.155,922.093L3990.155,887.237L4049.736,887.237L4049.736,860.689L3990.155,860.689L3990.155,830.088L4055.816,830.088L4055.816,803.337L3959.351,803.337L3959.351,948.844L4057.234,948.844L4057.234,922.093Z" style="fill:white;"/>
                    <path d="M4100.602,948.844L4100.602,897.369L4119.855,897.369L4152.685,948.844L4189.366,948.844L4151.874,892.708C4172.545,885.818 4184.704,870.213 4184.704,850.556C4184.704,820.36 4163.426,803.337 4126.745,803.337L4069.799,803.337L4069.799,948.844L4100.602,948.844ZM4100.602,828.872L4125.326,828.872C4143.971,828.872 4153.901,836.167 4153.901,850.556C4153.901,864.742 4143.971,872.037 4125.326,872.037L4100.602,872.037L4100.602,828.872Z" style="fill:white;"/>
                </g>
            </g>
        </g>
    </g>
</svg>
